<?xml version="1.0" encoding="UTF-8"?>
<svg id="Layer_2" data-name="Layer 2" xmlns="http://www.w3.org/2000/svg" viewBox="0 0 271.01 151.43">
  <defs>
    <style>
      .cls-1 {
        stroke-width: .75px;
      }

      .cls-1, .cls-2, .cls-3, .cls-4, .cls-5 {
        stroke-miterlimit: 10;
      }

      .cls-1, .cls-3 {
        fill: #fff;
        stroke: #000;
      }

      .cls-6 {
        fill: #ededed;
      }

      .cls-6, .cls-7 {
        opacity: .11;
      }

      .cls-2 {
        stroke: #999;
        stroke-width: 4px;
      }

      .cls-2, .cls-5 {
        fill: none;
      }

      .cls-7 {
        fill: #c6c6c6;
      }

      .cls-8 {
        fill: #999;
      }

      .cls-4 {
        fill: #8b0013;
        stroke: #680012;
      }

      .cls-4, .cls-5 {
        stroke-width: 3px;
      }

      .cls-5 {
        stroke: #4d4d4d;
      }
    </style>
  </defs>
  <g>
    <path class="cls-4" d="m63.29,31.37L3.26,96.34c-2.91,3.15-2.11,8.19,1.63,10.29l77.17,43.24,187.24-29.66L250.53,1.72,63.29,31.37Zm-2.51,73.95c-8.08,2.35-16.12-3.49-16.38-11.9-.18-5.73,3.64-10.99,9.14-12.59,8.08-2.35,16.12,3.49,16.38,11.9.18,5.73-3.64,10.99-9.15,12.59Z"/>
    <circle class="cls-5" cx="57.16" cy="93.08" r="10.84"/>
    <circle class="cls-5" cx="57.16" cy="93.08" r="16.98"/>
    <circle class="cls-2" cx="57.16" cy="93.08" r="14.17"/>
    <path class="cls-8" d="m67.8,86c.48.8.9,1.63,1.26,2.49l-.15-.36c.12.29.23.57.34.87.14.37.33.69.69.9.32.19.8.27,1.16.15s.71-.34.9-.69.29-.78.15-1.16c-.48-1.29-1.06-2.53-1.76-3.71-.19-.33-.53-.59-.9-.69s-.84-.05-1.16.15c-.68.44-.97,1.33-.54,2.05h0Z"/>
    <g>
      <path class="cls-7" d="m70.24,84.56c.91.95,1.56,2.05,1.96,3.3.03.06.24.17.22.13-.36-1.31-1-2.46-1.92-3.45-.08-.11-.36-.1-.26.02Z"/>
      <path class="cls-7" d="m69.32,85.57c1.25,1.57,2.06,3.32,2.45,5.24.06.2.36.13.32-.04-.61-2.17-1.17-3.61-2.47-5.38-.14-.18-.4.04-.29.17Z"/>
      <path class="cls-7" d="m67.49,84.26c1.25,1.55,2.07,3.29,2.47,5.2.04.14.31.09.27-.05-.63-2.15-1.2-3.56-2.52-5.31-.05-.06-.3.05-.21.16Z"/>
      <path class="cls-7" d="m68.18,85.81l2.4,5.2c.04.15.31.07.26-.11-.59-2.09-1.18-3.57-2.48-5.31-.11-.15-.3.07-.18.23Z"/>
    </g>
    <g>
      <path class="cls-7" d="m68.62,101.88c.75-1.22,1.34-2.51,1.78-3.87.07-.19-.22-.29-.29-.12-.44,1.36-1.04,2.64-1.78,3.86-.1.18.2.3.29.13Z"/>
      <path class="cls-7" d="m68.79,99.45c1.32-2.45.79-1.33,1.82-3.92.06-.16-.14-.06-.18.05l-1.73,3.81c-.08.15.01.19.09.05Z"/>
      <path class="cls-7" d="m69.8,101.54c.75-1.22,1.34-2.51,1.78-3.88.1-.26-.33-.21-.4-.05-.44,1.35-1.03,2.63-1.77,3.83-.13.24.3.25.38.09Z"/>
      <path class="cls-7" d="m69.65,102.74c1.31-2.46.78-1.31,1.79-3.88.07-.17-.21-.27-.28-.08l-1.79,3.87c-.1.18.19.27.28.09Z"/>
    </g>
    <g>
      <path class="cls-7" d="m60.49,108.25c2.64-.66,4.2-1.42,6.38-3.19.15-.12-.13-.29-.27-.17-1.71,1.69-3.79,2.72-6.24,3.09-.21.05-.07.32.13.27Z"/>
      <path class="cls-7" d="m60.24,106.25c2.62-.65,4.19-1.42,6.36-3.15.17-.13-.06-.37-.19-.27-1.67,1.71-3.73,2.75-6.17,3.12-.17.04-.17.34,0,.3Z"/>
      <path class="cls-7" d="m61.45,106.06c.8-.15,1.59-.35,2.36-.59,1.52-.57,2.85-1.42,3.99-2.57.15-.12-.1-.45-.26-.33l-6.12,3.13c-.22.05-.13.4.02.36Z"/>
      <path class="cls-7" d="m61.24,107.24c.78-.16,1.55-.35,2.31-.58,1.53-.58,2.86-1.45,4.01-2.61.18-.15-.17-.35-.29-.25-1.69,1.7-3.76,2.74-6.21,3.1-.23.06.02.38.19.34Z"/>
    </g>
    <g>
      <path class="cls-7" d="m63.9,81.25c1.46.81,2.71,1.86,3.76,3.15.16.16.33-.15.2-.28-1.06-1.3-2.33-2.36-3.8-3.17-.18-.13-.31.19-.16.3Z"/>
      <path class="cls-7" d="m65.76,83.09c.06,0,.21-.16.2-.16-.06,0-.21.16-.2.16Z"/>
      <path class="cls-7" d="m63.83,79.11c1.47.82,2.73,1.87,3.8,3.16.04.04.3,0,.26-.04-1.07-1.3-2.34-2.36-3.81-3.18-.05-.03-.3.02-.25.06Z"/>
      <path class="cls-7" d="m62.72,81.48l3.77,3.14c.16.16.35-.03.19-.19-2.29-2.31-1.14-1.35-3.79-3.16-.17-.12-.35.09-.17.21Z"/>
      <path class="cls-7" d="m64.74,80.3c1.46.81,2.73,1.87,3.79,3.16.16.16.34-.15.22-.27-1.07-1.31-2.34-2.37-3.81-3.2-.19-.13-.33.21-.2.3Z"/>
    </g>
    <g>
      <path class="cls-7" d="m70.83,97.93c.32-2.05.22-3.56-.08-5.62-.03-.2-.35-.16-.32.02.32,2.04.42,3.51.1,5.54-.03.18.27.24.3.05Z"/>
      <path class="cls-7" d="m71.03,95.57c.32-2.03.22-3.57-.12-5.64-.02-.15-.41-.11-.37.12.45,1.79.51,3.61.18,5.45-.03.18.27.26.3.07Z"/>
      <path class="cls-7" d="m72.01,97.52c.32-2.07.22-3.58-.11-5.65-.04-.28-.39.04-.36.22.31,2.03.4,3.5.08,5.52-.04.27.37.09.39-.09Z"/>
      <path class="cls-7" d="m70.02,96.34c.33-2,.26-3.65-.01-5.65-.03-.19-.34-.11-.31.07.46,1.79.52,3.61.19,5.46-.02.11.11.3.14.12Z"/>
      <path class="cls-7" d="m71.88,98.8c.32-2.04.22-3.54-.09-5.58-.01-.07-.26-.09-.26-.09.31,2.06.41,3.55.08,5.61-.01.09.24.21.26.07Z"/>
    </g>
    <g>
      <path class="cls-6" d="m69.6,83.67c.87.97,1.65,2.01,2.34,3.12.04.06.21.14.21.14-.68-1.14-1.46-2.2-2.35-3.18-.03-.04-.28-.16-.21-.08Z"/>
      <path class="cls-6" d="m68.63,84.75c1.34,1.43,2.37,3.07,3.09,4.92.08.2.35,0,.28-.15-.81-1.95-1.74-3.31-3.1-4.97-.14-.17-.37.07-.26.2Z"/>
      <path class="cls-6" d="m66.8,83.38c1.34,1.43,2.37,3.07,3.1,4.92.05.11.3.01.23-.14-.83-1.92-1.76-3.29-3.11-4.93-.06-.08-.32.03-.22.15Z"/>
      <path class="cls-6" d="m67.48,84.96l3.04,4.85c.07.16.33.06.26-.13-.82-1.94-1.79-3.36-3.12-4.98-.11-.13-.29.11-.17.25Z"/>
    </g>
    <g>
      <path class="cls-6" d="m70.58,97.95l.2-3.14c.01-.19-.3-.17-.31.02l-.2,3.13c-.01.19.3.18.31,0Z"/>
      <path class="cls-6" d="m70.77,95.61l.19-3.13c.01-.2-.39-.19-.4,0l-.18,3.11c-.01.2.38.21.39.01Z"/>
      <path class="cls-6" d="m71.75,97.5l.19-3.13c.02-.27-.36.05-.37.23l-.2,3.1c-.02.27.36-.02.37-.2Z"/>
      <path class="cls-6" d="m69.85,96.39l.2-3.14c.01-.21-.31-.22-.32-.05l-.19,3.13c-.01.2.29.23.3.06Z"/>
      <path class="cls-6" d="m71.63,98.86l.2-3.14s-.25-.1-.25-.09l-.2,3.13c0,.06.25.11.25.1Z"/>
    </g>
    <g>
      <path class="cls-6" d="m54.19,108.33c1.49.46,2.55.68,4.11.63.23,0,.11-.35-.07-.34-1.53.05-2.57-.17-4.03-.62-.21-.06-.19.28-.02.34Z"/>
      <path class="cls-6" d="m54.06,106.23c1.47.45,2.55.68,4.08.66.14,0,.29-.23.14-.23-1.54.07-2.57-.16-4.05-.61-.09-.03-.33.12-.17.17Z"/>
      <path class="cls-6" d="m53.05,108.61c1.48.45,2.55.68,4.1.64.15,0,.15-.28-.03-.28-1.54.03-2.61-.19-4.08-.65-.16-.05-.17.23.01.29Z"/>
      <path class="cls-6" d="m55.26,105.96c1.55.48,2.62.7,4.18.71.17,0,.17-.15,0-.14-1.36.13-2.67-.06-3.92-.55-.07-.02-.22,0-.26-.02Z"/>
      <path class="cls-6" d="m54.98,107.37c1.47.45,2.57.68,4.08.62.24,0,.19-.41.04-.4-1.39.11-2.73-.09-4.01-.59-.23-.07-.27.32-.11.37Z"/>
    </g>
    <g>
      <path class="cls-6" d="m61.53,81.16c.95.16,1.81.54,2.57,1.14.19.12.24-.19.06-.3-.78-.6-1.65-.98-2.62-1.15-.22-.07-.21.24,0,.31Z"/>
      <path class="cls-6" d="m61.38,79.13c.96.16,1.84.54,2.62,1.13.1.06.3-.12.15-.21-.79-.61-1.67-1-2.65-1.17-.15-.04-.29.2-.11.26Z"/>
      <path class="cls-6" d="m60.35,81.47l2.54,1.11c.16.09.33-.12.2-.2-1.64-.98-.84-.62-2.68-1.17-.15-.04-.21.22-.06.26Z"/>
      <path class="cls-6" d="m62.56,78.91c.96.16,1.84.53,2.64,1.1.05.03.33,0,.22-.07-.78-.63-1.67-1.03-2.65-1.21-.13-.04-.35.14-.2.18Z"/>
      <path class="cls-6" d="m62.33,80.21l2.55,1.13c.23.14.32-.25.17-.34-1.67-1.01-.86-.64-2.71-1.2-.23-.07-.17.36,0,.41Z"/>
    </g>
    <g>
      <path class="cls-6" d="m66.92,83.13l1.55,1.55c.17.17.37-.13.25-.25l-1.55-1.54c-.17-.17-.37.12-.25.25Z"/>
      <path class="cls-6" d="m65.06,81.83l1.58,1.55s.29-.08.2-.17l-1.58-1.56s-.29.09-.19.18Z"/>
      <path class="cls-6" d="m66.93,80.99l1.58,1.54c.05.05.23-.02.27.02l-1.59-1.57s-.27-.01-.26,0Z"/>
      <path class="cls-6" d="m65.8,83.38l1.55,1.54c.16.15.27-.13.12-.28l-1.56-1.54c-.15-.15-.26.14-.12.28Z"/>
      <path class="cls-6" d="m67.81,82.19l1.58,1.55c.15.14.35-.08.23-.2l-1.58-1.58c-.15-.15-.36.11-.24.23Z"/>
    </g>
  </g>
  <path class="cls-1" d="m132.45,103.08l-2.65-.05c-.25,0-.49-.09-.67-.25l-2.49-2.29.34,3.5c.02.22-.04.45-.16.63l-1.49,2.18,2.62-.05c.24,0,.47.08.65.24l2.6,2.26-.43-3.44c-.03-.23.03-.47.16-.66l1.53-2.06Z"/>
  <path class="cls-1" d="m142.65,108.97l-2.34-2.11c-.23-.19-.37-.46-.4-.75l-.45-3.99-2.43,3.41c-.16.22-.38.37-.64.44l-3.03.8,2.39,1.99c.22.18.36.44.4.72l.57,4.05,2.3-3.42c.16-.23.39-.4.66-.47l2.98-.66Z"/>
  <path class="cls-1" d="m181.7,96.52l-1.45-1.81c-.14-.16-.22-.38-.2-.59l.14-2.95-2.17,2.19c-.14.14-.32.23-.52.25l-2.3.22,1.5,1.73c.14.16.21.36.21.57l-.06,3.01,2.07-2.21c.14-.15.33-.24.53-.26l2.24-.13Z"/>
  <path class="cls-1" d="m134.68,117.15l-1.45-1.81c-.14-.16-.22-.38-.2-.59l.14-2.95-2.17,2.19c-.14.14-.32.23-.52.25l-2.3.22,1.5,1.73c.14.16.21.36.21.57l-.06,3.01,2.07-2.21c.14-.15.33-.24.53-.26l2.24-.13Z"/>
  <g>
    <g>
      <path class="cls-3" d="m172.02,94.53c1.47,1.63,2.33,3.18,2.56,4.66.14.91-.15,2.01-.88,3.29-.45.76-1.44,1.74-2.97,2.94-.42.36-1.06.87-1.9,1.52-.84.65-1.48,1.15-1.91,1.48,1.3.89,2.62,1.67,3.96,2.37s2.36,1.17,3.05,1.43l1.04.39c-.11.23-.41.59-.91,1.08-.5.49-1.02.91-1.56,1.27-1.35.96-3.07,1.71-5.16,2.25-1.51-.96-2.96-2.13-4.36-3.52-1.39-1.39-2.42-2.63-3.07-3.72-.5,2.9-.75,5.47-.73,7.7v1.12c-.29-.06-.68-.16-1.19-.29-.5-.13-1.36-.53-2.59-1.19-1.22-.66-2.24-1.44-3.07-2.35,0-2.71.21-5.41.65-8.1.44-2.69.88-4.69,1.32-6.01l.7-2.03c1.41-.75,2.87-1.39,4.39-1.91s2.69-.86,3.51-1.02l1.24-.2c-.86,1.52-1.65,3.48-2.36,5.88-.71,2.4-.99,4.6-.84,6.6.92-1.53,2.3-3.43,4.15-5.7,1.85-2.27,3.47-4.17,4.87-5.7l2.06-2.24Z"/>
      <path class="cls-3" d="m183.76,103.77c-.38,1.18-.66,2.28-.83,3.3s-.28,2.28-.32,3.76c-.03,1.48,0,2.61.13,3.37l.21,1.34c-1.36-.34-2.55-.73-3.58-1.15-1.03-.42-1.73-.76-2.11-1.02l-.53-.39c-.37-2.36-.57-4.58-.59-6.65-.02-2.07.06-3.55.23-4.43l.25-1.36c2.55.02,4.87.27,6.95.73l1.06.23c-.2.33-.49,1.08-.87,2.25Z"/>
      <path class="cls-3" d="m198.41,96.82l1.32-1.05c.1.46.22,1.15.37,2.06.33,2.08-.03,4.25-1.09,6.52-2.27-.22-4.27-.77-5.99-1.64-.78,1.85-1,4.07-.65,6.65.72-.11,2.72-.99,5.99-2.62l1.61-.81c.07.47,0,1.07-.2,1.81-.21.74-.53,1.42-.97,2.05-.44.63-1.2,1.34-2.29,2.14-1.09.8-2.42,1.49-4,2.09-1.13.02-2.44-.21-3.93-.68-1.49-.47-2.59-1.07-3.3-1.81-.07-1.72.02-3.33.27-4.85.25-1.52.59-2.76,1-3.73.9-1.98,1.71-3.3,2.43-3.98l.44-.47c1.72.34,3.37.38,4.95.13s2.92-.85,4.05-1.8Z"/>
      <path class="cls-3" d="m238.33,115.94c-4.28-.22-9.49.15-15.63,1.12-2.31.37-4.26.74-5.84,1.12l-3.68.97,10.82-16.83c-2.37.59-4.42,1.32-6.15,2.2-1.73.88-2.89,1.62-3.48,2.22l-.83.84c-.27-2.57-.13-5.11.43-7.63.56-2.51,1.17-4.4,1.84-5.66l1.01-1.83c.31.21,1.02.44,2.13.69,1.11.25,2.42.35,3.91.28,3.26-.13,6.04-.38,8.33-.74s4.6-.84,6.93-1.42l-10.02,17.54c1.98-.44,3.86-1.18,5.64-2.21,1.77-1.03,3.05-1.95,3.84-2.76l1.18-1.22c-.71,6.16-.85,10.6-.42,13.32Z"/>
      <path class="cls-3" d="m212.25,88.24c-1.38,3.6-2.56,8.23-3.53,13.89,2.67-1.54,4.56-4.53,5.67-8.96.12.06.28.13.48.22.2.09.56.28,1.09.57.53.29,1,.59,1.41.89,1.21.85,2.01,1.68,2.39,2.49-.12.31-.41.83-.86,1.55-.45.72-.93,1.35-1.42,1.88-.5.53-1.19,1.11-2.08,1.73-.89.62-1.86,1.13-2.9,1.54,2.09.71,4.29,1.01,6.6.91-.03.35-.18.81-.46,1.37-.28.56-.59,1.06-.93,1.5s-.86.91-1.56,1.42c-.7.51-1.49.93-2.37,1.25-1.86-1.22-3.74-2.81-5.64-4.77l-.7,5.78c-.94-.04-1.98-.22-3.12-.54-1.14-.32-2.03-.73-2.68-1.21.44-5.98.93-11.2,1.47-15.67l.28-2.28c1.46-.79,2.93-1.48,4.41-2.07,1.48-.59,2.58-.99,3.31-1.18l1.14-.3Z"/>
    </g>
    <path class="cls-3" d="m104,58.52c.28-3.65.97-7.1,2.07-10.33,1.09-3.23,2.12-5.55,3.07-6.95l1.41-2.21,45.06-10.12,1.06,28.22c-5.09-.96-12.63-1.31-22.62-1.06-.87,4.41-1.89,8.58-3.07,12.53,10.5-1.96,17.93-3.57,22.27-4.85l2.47-.72c-.06,1.11-.73,2.68-2.02,4.68-1.29,2.01-2.87,3.79-4.74,5.33-1.87,1.55-4.75,3.17-8.64,4.85-3.89,1.68-8.41,3.04-13.57,4.08-2.1,6-4.27,11.13-6.49,15.39-3.21-.97-5.99-2.22-8.35-3.76-2.36-1.54-3.94-2.84-4.73-3.89l-1.17-1.47c.39-8.9,2.1-19.11,5.14-30.64l-7.14.91Z"/>
    <path class="cls-3" d="m149.18,77.45c-.41.84-.65,2.02-.74,3.52-.09,1.5-.06,2.7.08,3.59s.27,1.62.4,2.17c-1.44.02-2.75-.16-3.95-.57-1.2-.4-2.05-.82-2.55-1.25l-.7-.65c-1.63,2.46-2.64,4.24-3.04,5.36.24,1.99.46,3.57.64,4.72-1.31-.06-2.67-.28-4.1-.65-1.43-.37-2.54-.71-3.35-1.02l-1.16-.48c-.16-4.88-.05-9.84.34-14.88l.18-2.62c1.49.07,2.85.23,4.1.47,1.24.24,2.12.46,2.62.65l.7.35c-.39,2.09-.49,5.07-.31,8.94.55-1.98,1.77-5.75,3.67-11.3l7.17,3.64Z"/>
    <path class="cls-3" d="m158.74,86.65c.39-.03.99-.11,1.8-.23s2.01-.51,3.6-1.15c1.59-.64,2.9-1.28,3.91-1.91l1.46-.99c.12.32.21.63.25.92.2,1.29-.19,2.67-1.18,4.15-1.29,1.86-3.69,3.43-7.2,4.69-.54.02-1.23,0-2.08-.03-.85-.04-2.25-.33-4.19-.88-1.94-.56-3.47-1.36-4.57-2.4-.16-2.14-.02-4.39.42-6.74.44-2.35.92-4.16,1.44-5.43l.78-1.9c1.95-.41,3.85-1.02,5.71-1.82,1.85-.8,3.2-1.49,4.05-2.06l1.31-.92c1.41.49,2.59,1.27,3.53,2.34.94,1.07,1.53,2.01,1.77,2.82l.41,1.25c-.65,2.24-2.05,4.1-4.19,5.59s-4.46,2.52-6.97,3.08c-.04.45-.06.99-.07,1.64Zm3.8-7.05c.35-.73.49-1.31.43-1.74s-.27-.74-.61-.94c-.34-.2-.72-.27-1.14-.2s-.82.16-1.2.29c-.12.86-.46,2.76-1.04,5.7,1.61-.49,2.8-1.53,3.56-3.1Z"/>
    <path class="cls-3" d="m190.71,78.69c.3,1.92-.73,3.81-3.1,5.67-2.37,1.87-6.2,3.49-11.49,4.87-2.12-2.03-3.76-4.55-4.92-7.55l1.2.06c2.66.22,4.69.22,6.08,0s2.5-.49,3.33-.81c.83-.32,1.33-.78,1.48-1.38-4.2.29-6.65.35-7.35.17-.69-.18-1.31-.38-1.85-.6-.89-.37-1.43-1.18-1.63-2.43s0-2.47.58-3.65c.59-1.18,1.42-2.17,2.5-2.99,1.08-.81,2.36-1.56,3.83-2.23,2.56-1.12,5.42-1.92,8.58-2.43l2.61,8.27c-3.33-.32-7.45-.16-12.35.48.69,1.14,2.9,1.69,6.64,1.64,1.36-.05,2.63.15,3.82.59,1.19.44,1.87,1.2,2.04,2.29Z"/>
    <path class="cls-3" d="m207.62,63.73c2.07-.33,4.46,1.55,7.16,5.62-1.35,2.38-2.16,5.47-2.42,9.27-.13,1.48-.1,2.93.09,4.35l-.32.05c-2.78.44-4.77-.45-5.99-2.66-.45-.81-.75-1.66-.89-2.55-.31-1.95-.19-4.4.35-7.37-2.05,2.29-3.82,5.7-5.29,10.23-.02.78.03,2.01.15,3.68-2.07-.08-3.65-.39-4.74-.93-1.01-.48-1.64-.91-1.88-1.28-.41-3.05-.63-6.52-.65-10.41-.02-3.89.05-7.02.21-9.4.16-2.38.28-3.59.34-3.63,1.61-.76,3.26-1.42,4.95-1.98,1.69-.56,2.98-.92,3.85-1.09l1.32-.21c-1.5,5.08-2.56,10.7-3.17,16.85.98-2.46,2.08-4.45,3.29-5.98,1.22-1.53,2.42-2.39,3.62-2.58Z"/>
  </g>
</svg>