<?xml version="1.0" standalone="no"?>
<!DOCTYPE svg PUBLIC "-//W3C//DTD SVG 20010904//EN"
 "http://www.w3.org/TR/2001/REC-SVG-20010904/DTD/svg10.dtd">
<svg version="1.0" xmlns="http://www.w3.org/2000/svg"
 width="1400.000000pt" height="738.000000pt" viewBox="0 0 1400.000000 738.000000"
 preserveAspectRatio="xMidYMid meet">

<g transform="translate(0.000000,738.000000) scale(0.100000,-0.100000)"
fill="#000000" stroke="none">
<path d="M2636 5447 c-388 -1036 -706 -1887 -706 -1890 0 -4 200 -7 443 -7
l444 0 30 78 c16 42 155 413 308 824 153 411 280 746 282 744 2 -2 -10 -208
-26 -457 -17 -250 -39 -598 -51 -774 -11 -176 -22 -341 -24 -368 l-5 -47 482
2 482 3 706 1885 707 1885 -441 3 c-242 1 -444 -1 -448 -5 -4 -5 -146 -377
-314 -828 -169 -451 -311 -824 -316 -829 -5 -5 -6 13 -3 40 2 27 16 225 29
439 14 215 34 530 45 700 11 171 22 349 26 398 l7 87 -475 0 -476 0 -706
-1883z"/>
<path d="M5120 5449 c-388 -1035 -707 -1885 -708 -1890 -2 -5 183 -8 444 -7
l447 3 703 1875 c387 1031 704 1881 704 1888 0 9 -95 12 -442 12 l-443 0 -705
-1881z"/>
<path d="M6590 6593 c-150 -406 -333 -898 -406 -1093 -209 -564 -711 -1913
-719 -1933 -7 -16 17 -17 441 -15 l448 3 295 779 296 779 6 -64 c4 -35 9 -208
13 -384 4 -176 11 -459 16 -630 5 -170 10 -349 10 -397 l0 -88 626 -2 626 -3
-459 -124 c-252 -68 -647 -176 -878 -238 -231 -63 -634 -172 -895 -243 -261
-71 -792 -215 -1180 -320 -1497 -406 -1412 -384 -1540 -405 -590 -97 -1140 45
-1475 380 -333 333 -435 808 -304 1414 44 203 166 545 261 735 21 43 37 80 35
83 -9 8 -342 -406 -544 -677 -953 -1280 -1364 -2341 -1178 -3040 73 -272 217
-473 477 -666 260 -192 546 -310 878 -361 155 -23 477 -23 649 1 388 53 726
152 1306 379 278 109 894 371 2290 972 380 164 803 346 940 405 138 59 401
173 585 253 184 79 585 253 890 385 700 302 3221 1395 4135 1792 226 98 686
298 1024 444 686 299 686 298 695 323 7 16 -15 43 -35 43 -9 0 -163 -40 -379
-98 -102 -28 -401 -109 -665 -181 -1104 -299 -2642 -716 -2805 -760 -96 -27
-176 -45 -177 -42 -2 3 19 67 46 141 l49 135 -517 5 c-401 4 -515 8 -514 17 2
7 78 213 169 458 l166 445 430 2 430 3 129 344 c71 189 129 346 129 348 0 1
-191 3 -425 3 -234 0 -425 3 -425 8 0 4 65 183 144 397 l145 390 453 3 453 2
114 303 c63 166 116 308 119 315 3 9 -272 12 -1356 12 l-1360 0 -458 -555
c-252 -305 -459 -553 -461 -551 -2 2 88 247 201 543 113 297 206 545 206 551
0 9 -116 12 -448 12 l-448 0 -274 -737z m2169 -435 c-221 -590 -508 -1359
-639 -1708 l-238 -634 -6 104 c-6 101 -43 1424 -48 1715 l-3 141 665 731 c366
402 666 730 668 728 2 -2 -178 -486 -399 -1077z"/>
</g>
</svg>
